Coordinates
version=1
nRows=19
nColumns=36
inDegrees=yes

Units are S.I. units (second, meters, Newtons, ...)
If the header above contains a line with 'inDegrees', this indicates whether rotational values are in degrees (yes) or radians (no).

endheader
time	pelvis_tilt	pelvis_list	pelvis_rotation	pelvis_tx	pelvis_ty	pelvis_tz	hip_flexion_r	hip_adduction_r	hip_rotation_r	knee_angle_r	knee_angle_r_beta	ankle_angle_r	subtalar_angle_r	mtp_angle_r	hip_flexion_l	hip_adduction_l	hip_rotation_l	knee_angle_l	knee_angle_l_beta	ankle_angle_l	subtalar_angle_l	mtp_angle_l	lumbar_extension	lumbar_bending	lumbar_rotation	arm_flex_r	arm_add_r	arm_rot_r	elbow_flex_r	pro_sup_r	arm_flex_l	arm_add_l	arm_rot_l	elbow_flex_l	pro_sup_l
      1.63000000	    -31.70134846	     -1.04996648	     -6.80890161	     -0.23558005	      0.80149319	     -0.56546484	     90.17963176	     -3.00488288	      7.94253042	     99.57791947	      1.73796256	     17.99191433	      1.32668115	     -7.45244250	     92.43913391	    -12.68332747	     12.00121202	    101.32469909	      1.76844961	     16.39983125	    -13.93702201	     -7.45244250	    -37.38843349	     -4.45843073	      6.79940591	     53.57290327	    -37.74182239	      9.64159174	    114.15836007	    103.38551112	     62.64490567	    -25.31073818	     22.22729509	    118.50178951	    106.06374992
      1.64000000	    -31.59893457	     -0.75275302	     -6.58528350	     -0.23087113	      0.81403343	     -0.56591720	     88.73996282	     -3.04568755	      8.20326703	     97.89316284	      1.70855801	     16.98548465	      0.20382090	     -7.45416255	     90.86716510	    -12.24605699	     11.34904664	     99.58234526	      1.73803980	     14.65722676	    -15.45256074	     -7.45416255	    -36.67938350	     -4.46608994	      6.57214795	     51.26663508	    -36.37084738	      8.58658480	    113.94017278	    104.03893075	     59.55266595	    -24.90931664	     20.24815772	    118.86956696	    106.67430463
      1.65000000	    -31.22390780	     -0.43361303	     -6.32225412	     -0.22567462	      0.82702439	     -0.56666457	     86.96001362	     -3.22767173	      8.54269839	     96.19623655	      1.67894106	     16.73779054	      0.01698515	     -7.45461739	     88.92891974	    -11.79227211	     10.66965242	     97.83595389	      1.70755952	     14.21611526	    -15.52589146	     -7.45461739	    -36.13271614	     -4.48921744	      6.36652160	     48.89571532	    -35.19759808	      7.59863594	    113.62718737	    104.18892028	     56.51239759	    -24.47173356	     18.41758554	    119.07314768	    106.77915127
      1.66000000	    -30.82116431	      0.03151193	     -6.14895539	     -0.22006346	      0.83995882	     -0.56735434	     85.19141970	     -3.40446338	      8.97700204	     94.52492962	      1.64977125	     16.25867993	     -0.51717302	     -7.45552016	     86.88780587	    -11.36470595	      9.77340172	     96.06659362	      1.67667836	     13.40548769	    -16.37246181	     -7.45552016	    -35.48108043	     -4.62521127	      6.04175567	     46.54177260	    -33.97611164	      6.92757062	    113.23566506	    104.65057725	     53.09157910	    -24.43276856	     16.50347431	    119.54353932	    107.12357259
      1.67000000	    -30.17950150	      0.36122185	     -6.19918313	     -0.21404290	      0.85358990	     -0.56742478	     83.03122733	     -3.29955078	      9.33213166	     92.70009748	      1.61792192	     16.03145614	     -0.83658385	     -7.45590076	     84.52879783	    -11.26591702	      8.93424188	     94.21908400	      1.64443323	     13.01502587	    -16.69159597	     -7.45590076	    -34.98252759	     -4.81001433	      6.20107058	     44.06106848	    -32.92565325	      5.87184575	    112.87323240	    104.81160815	     49.86810471	    -24.21048297	     14.63944511	    119.73552121	    107.15741066
      1.68000000	    -29.55114172	      0.86437187	     -6.30208665	     -0.20763210	      0.86733490	     -0.56747431	     80.89365466	     -3.25830354	      9.81123103	     90.80830969	      1.58490399	     15.38179548	     -1.75403589	     -7.45775406	     82.07270641	    -11.15416182	      7.81207704	     92.22686059	      1.60966238	     11.89308968	    -18.05777466	     -7.45775406	    -34.33956618	     -5.14113747	      6.09265302	     41.70343136	    -31.84207422	      5.15081734	    112.50993573	    105.94966425	     46.24561496	    -24.43941441	     12.33026123	    120.34499983	    107.55381073
      1.69000000	    -28.82324745	      1.22677689	     -6.42875319	     -0.20066059	      0.88135033	     -0.56746275	     78.52653862	     -3.24369739	     10.14074589	     88.83224974	      1.55041524	     15.32340652	     -2.03370395	     -7.45809800	     79.46028474	    -11.15243684	      6.77381993	     90.19791241	      1.57425055	     11.79998271	    -18.16353463	     -7.45809800	    -33.66389012	     -5.40996059	      6.48464813	     38.69948130	    -31.34293376	      3.89948176	    112.82273823	    106.08881351	     42.76978228	    -24.38274425	     10.24021434	    120.77047901	    107.51186516
      1.70000000	    -28.05541214	      1.70392982	     -6.44084674	     -0.19328806	      0.89567246	     -0.56776282	     76.09453814	     -3.45422801	     10.52899806	     86.77970898	      1.51459165	     14.86782983	     -2.87050017	     -7.45942142	     76.68978589	    -10.93086414	      5.60030504	     87.95999793	      1.53519157	     11.25467869	    -18.87853414	     -7.45942142	    -32.98270938	     -5.64842902	      6.59312257	     35.65646494	    -30.91658302	      2.72025204	    113.52175401	    106.67523939	     38.99508733	    -24.67251208	      7.86685370	    121.67636041	    107.67320851
      1.71000000	    -27.25833614	      2.01507670	     -6.46165681	     -0.18546985	      0.91020824	     -0.56806776	     73.51492377	     -3.64947867	     10.77270947	     84.62638771	      1.47700910	     14.71937550	     -3.26588699	     -7.45995670	     73.84603886	    -10.75640074	      4.64315281	     85.64282804	      1.49474933	     11.10494822	    -18.96998769	     -7.45995670	    -32.25393171	     -5.67076745	      6.89909006	     32.30287071	    -30.73567025	      1.27095541	    114.81388508	    106.88525730	     35.05572255	    -25.05901335	      5.33693696	    122.86252383	    107.71843410
      1.72000000	    -26.47181818	      2.29583858	     -6.62045517	     -0.17720362	      0.92501017	     -0.56806696	     70.89892798	     -3.72169860	     11.05539025	     82.34981617	      1.43727543	     14.42331615	     -3.55000493	     -7.46028421	     70.90323513	    -10.70786817	      3.74228115	     83.17684058	      1.45170973	     10.90438807	    -18.91290551	     -7.46028421	    -31.40463629	     -5.71199034	      7.34473728	     28.67252642	    -30.68149676	     -0.30471088	    116.67718409	    107.03953547	     30.92459464	    -25.78174773	      2.60212924	    124.41460230	    107.75121931
      1.73000000	    -25.59929168	      2.63592234	     -6.86941865	     -0.16837472	      0.94045932	     -0.56794099	     68.17763948	     -3.81040312	     11.40105211	     79.92876183	      1.39502006	     13.45794369	     -4.40304720	     -7.46156184	     67.71947053	    -10.67900129	      2.75328527	     80.48313695	      1.40469573	     10.55596848	    -18.97591894	     -7.46156184	    -30.58830480	     -5.84833778	      7.58221665	     25.15071673	    -30.71509727	     -1.62417484	    118.82809020	    107.48978908	     26.34606093	    -26.85277395	     -0.66900095	    126.62966444	    107.94576524
      1.74000000	    -24.84337020	      2.75588518	     -7.09777767	     -0.15928264	      0.95618507	     -0.56776164	     65.45998011	     -3.82140468	     11.62239037	     77.35303958	      1.35006523	     12.78377040	     -4.34074458	     -7.46187233	     64.67037782	    -10.74707775	      2.02535131	     77.70742620	      1.35625044	     10.17301208	    -18.53248032	     -7.46187233	    -29.60452648	     -5.75587263	      8.15092460	     20.98996710	    -31.05130700	     -3.58869149	    121.94275285	    107.69665314	     21.75249865	    -28.07031883	     -3.79818614	    129.05762684	    108.00011133
      1.75000000	    -24.01297106	      2.91652466	     -7.16355969	     -0.14984299	      0.97270831	     -0.56806017	     62.63438052	     -4.10537592	     11.76233799	     74.60949231	      1.30218129	     11.27178975	     -4.99732818	     -7.46299715	     61.46124453	    -10.53182422	      1.36450081	     74.66866961	      1.30321413	      9.56947215	    -18.19054940	     -7.46299715	    -28.68439493	     -5.59830798	      8.26926544	     16.97518663	    -31.33467605	     -5.55843347	    125.19867149	    108.16191714	     16.71320542	    -29.55392559	     -7.61064749	    131.98697604	    107.92349655
      1.76000000	    -23.46134867	      2.88232649	     -7.09464877	     -0.14028510	      0.98921683	     -0.56851030	     60.03419250	     -4.46388209	     11.56972601	     71.76534141	      1.25254150	     10.02644456	     -4.62127964	     -7.46335264	     58.64852996	    -10.36245529	      0.94577070	     71.61124160	      1.24985195	      8.63822288	    -17.43815556	     -7.46335264	    -27.43405775	     -5.17648589	      8.60024670	     12.33762932	    -31.91282050	     -8.06740121	    129.25279827	    108.36493701	     11.64860800	    -31.48634049	    -10.84164599	    135.02377760	    107.88160081
      1.77000000	    -22.80814130	      2.85538567	     -7.01494549	     -0.13030939	      1.00674223	     -0.56883506	     57.25544490	     -4.86181488	     11.32649947	     68.69219448	      1.19890496	      8.29280393	     -4.53999725	     -7.46379731	     55.63415156	    -10.16896051	      0.48171887	     68.29599008	      1.19198989	      7.39563632	    -16.84533231	     -7.46379731	    -26.28485032	     -4.84506422	      8.87676948	      7.43283282	    -32.30886152	    -11.22089477	    133.40265349	    108.61114211	      6.57720567	    -33.42304322	    -14.68256181	    138.22813120	    107.76503720
      1.78000000	    -22.13640954	      2.85431810	     -6.92290938	     -0.11979059	      1.02504991	     -0.56897641	     54.40708085	     -5.34567783	     10.91965184	     65.42048739	      1.14180290	      5.55957364	     -5.21795477	     -7.46527167	     52.57218245	    -10.05934546	     -0.33275505	     64.79086185	      1.13081386	      5.24695826	    -16.96108151	     -7.46527167	    -25.07549825	     -4.53851994	      9.05967961	      2.43528224	    -32.62470796	    -14.64865711	    137.51843951	    109.41411686	      1.11676983	    -35.62444446	    -18.62031079	    141.32420173	    107.45510396
      1.79000000	    -21.49561791	      2.86174525	     -6.81321266	     -0.10881588	      1.04407932	     -0.56892216	     51.52531996	     -5.92957417	     10.43122055	     61.97004946	      1.08158140	      3.26203793	     -4.49198062	     -7.46600894	     49.47984361	    -10.00817344	     -1.33958335	     61.08989367	      1.06621978	      3.30409744	    -16.37529374	     -7.46600894	    -23.77217758	     -4.27319249	      9.41468886	     -3.05428147	    -32.80807969	    -18.75208792	    141.69710357	    109.67636806	     -4.21058579	    -37.95304794	    -22.22599596	    144.13533107	    107.28460033
      1.80000000	    -20.83539541	      2.79826419	     -6.64445557	     -0.09739544	      1.06411393	     -0.56883885	     48.46869233	     -6.56609775	      9.70320389	     58.15890013	      1.01506430	      0.21007448	     -3.90509316	     -7.46741056	     46.30285662	    -10.02169452	     -2.56805014	     57.10026838	      0.99658769	      0.35446846	    -16.24058336	     -7.46741056	    -22.43602828	     -3.91449428	      9.93011265	     -8.91628119	    -32.83091183	    -23.24932296	    145.56115253	    110.17044035	     -9.28048370	    -40.43200351	    -25.17315634	    146.52901066	    107.14524415
      1.81000000	    -20.08492426	      2.64918797	     -6.44322675	     -0.08547068	      1.08517947	     -0.56882229	     45.13279808	     -7.20864686	      8.75483455	     53.98878936	      0.94228213	     -3.05230317	     -2.82781580	     -7.46890348	     42.88795178	    -10.09506872	     -3.92266482	     52.76858339	      0.92098552	     -2.71144704	    -15.60382937	     -7.46890348	    -21.05795434	     -3.44219962	     10.46067519	    -14.77917319	    -32.76776737	    -27.81241197	    148.54590491	    111.01320697	    -14.32339194	    -43.07265966	    -27.98225350	    148.30923680	    107.60626317
